<svg xmlns="http://www.w3.org/2000/svg" viewBox="0 0 34.00 34.00" data-guides="{&quot;vertical&quot;:[],&quot;horizontal&quot;:[]}"><defs/><path fill="#5ce21c" fill-opacity="1" stroke="#5ce21c" stroke-opacity="1" stroke-width="1" id="tSvgb15432e65a" title="Ellipse 1" d="M17 1C25.8366 1 33 8.1634 33 17C33 25.8366 25.8366 33 17 33C8.1634 33 1 25.8366 1 17C1 8.1634 8.1634 1 17 1Z" style="transform-origin: 17px 17px;"/><line fill="#74e424" fill-opacity="1" stroke="#b95523" stroke-opacity="1" stroke-width="1" id="tSvg29f3acbae9" title="Line 3" x1="13" y1="6" x2="15.863574351978968" y2="8.863574351978059" style="transform-origin: 14.4318px 7.43179px;"/><line fill="#74e424" fill-opacity="1" stroke="#b95523" stroke-opacity="1" stroke-width="1" id="tSvg79029d2b8a" title="Line 4" x1="15.068212824011425" y1="8.863574351978059" x2="18.931787175989484" y2="9.727148703956118" style="transform-origin: 17px 9.29536px;"/><path fill="#518e24" fill-opacity="1" stroke="#32841a" stroke-opacity="1" stroke-width="1" id="tSvge5acb6cd31" title="Ellipse 3" d="M20.0682 1C23.3819 1 26.0682 2.3431 26.0682 4C26.0682 5.6569 23.3819 7 20.0682 7C16.7545 7 14.0682 5.6569 14.0682 4C14.0682 2.3431 16.7545 1 20.0682 1Z" style="transform-origin: 20.0682px 4px;"/><line fill="#74e424" fill-opacity="1" stroke="#b95523" stroke-opacity="1" stroke-width="1" id="tSvgf4bb227799" title="Line 6" x1="15.284106412005713" y1="8.863574351978059" x2="18.715893587995197" y2="3.136425648021941" style="transform-origin: 17px 6px;"/><path fill="#f1e926" fill-opacity="1" stroke="#f4ec2d" stroke-opacity="1" stroke-width="1" id="tSvgc4722bb8dc" title="Ellipse 4" d="M18 16C21.866 16 25 18.9101 25 22.5C25 26.0899 21.866 29 18 29C14.134 29 11 26.0899 11 22.5C11 18.9101 14.134 16 18 16Z" style="transform-origin: 18px 22.5px;"/></svg>